<svg xmlns="http://www.w3.org/2000/svg" viewBox="0 0 100 100">
  <defs></defs>
  <g id="info_circle" data-name="Info Circle">
    <path class="cls-1" d="M50,10A40,40,0,1,0,90,50,40,40,0,0,0,50,10Zm0,12.55a8.06,8.06,0,1,1-8.07,8.06A8.06,8.06,0,0,1,50,22.55ZM63.43,74.46a3,3,0,0,1-3,3H39.56a3,3,0,0,1-3-3v-3a3,3,0,0,1,3-3H40a3,3,0,0,0,3-3V59.18a2.83,2.83,0,0,0-2.62-3,2.84,2.84,0,0,1-2.62-3v-3a2.84,2.84,0,0,1,2.62-3A2.72,2.72,0,0,0,43,44.43a2.91,2.91,0,0,1,3-2.8H54a3,3,0,0,1,3,3V65.5a3,3,0,0,0,3,3h.39a3,3,0,0,1,3,3Z"></path>
  </g>
</svg>
